<?xml version="1.0" standalone="no"?>
<!DOCTYPE svg PUBLIC "-//W3C//DTD SVG 20010904//EN"
 "http://www.w3.org/TR/2001/REC-SVG-20010904/DTD/svg10.dtd">
<svg version="1.0" xmlns="http://www.w3.org/2000/svg"
 width="700.000000pt" height="700.000000pt" viewBox="0 0 700.000000 700.000000"
 preserveAspectRatio="xMidYMid meet">
<metadata>
Created by potrace 1.11, written by Peter Selinger 2001-2013
</metadata>
<g transform="translate(0.000000,700.000000) scale(0.100000,-0.100000)"
fill="#000000" stroke="none">
<path d="M6020 6485 c-25 -7 -106 -32 -180 -55 -74 -23 -142 -44 -150 -46 -8
-2 -103 -31 -210 -64 -322 -100 -371 -115 -1575 -485 -638 -196 -1182 -369
-1208 -383 -90 -48 -179 -173 -191 -265 -3 -18 -5 -889 -5 -1936 -1 -1809 -2
-1903 -18 -1896 -38 16 -263 93 -263 90 0 -2 -15 1 -32 6 -18 5 -49 12 -68 15
-34 5 -58 9 -110 19 -46 10 -354 13 -425 5 -258 -30 -517 -103 -695 -197 -264
-139 -398 -338 -385 -573 7 -129 51 -231 146 -334 49 -53 158 -143 189 -154 8
-3 17 -8 20 -12 16 -20 290 -124 412 -156 76 -19 90 -22 148 -30 25 -3 47 -8
50 -9 16 -9 150 -19 270 -19 167 0 234 6 400 38 127 25 350 100 465 158 134
68 264 184 326 292 30 54 54 124 63 191 3 22 5 669 6 1437 l0 1397 103 32 c56
18 107 33 112 35 13 2 232 70 305 94 30 10 102 32 160 50 110 33 312 95 440
135 41 13 134 41 205 63 186 58 727 225 1090 337 481 149 567 175 576 175 5 0
9 -397 9 -1046 0 -992 -1 -1046 -17 -1039 -110 45 -282 98 -363 111 -14 2 -34
6 -46 9 -57 13 -176 19 -329 19 -198 -1 -361 -25 -544 -80 -264 -80 -395 -149
-521 -274 -132 -132 -180 -244 -175 -410 5 -134 48 -237 145 -343 106 -116
233 -192 442 -265 244 -85 416 -116 658 -116 237 -1 414 30 658 116 209 73
302 127 418 242 76 76 116 136 148 225 21 56 21 60 24 2327 2 2097 1 2274 -15
2320 -21 64 -50 109 -103 161 -90 88 -236 124 -360 88z"/>
</g>
</svg>
